_________________________  Visit us at _________________________
  
http://p2pdl.com  ____________________________  http://p2pdl.com


Kismet Love Paisa Dilli 2012 DVDRip x264 AAC - ViZNU

 
http://www.imdb.com/title/tt2402131/ 
http://cinemahouse.in/movie/218/Kismet+Love+Paisa+Dilli

General
Format                         : MPEG-4
Format profile                 : Base Media
Codec ID                       : isom
File size                      : 697 MiB
Duration                       : 2h 16mn
Overall bit rate mode          : Variable
Overall bit rate               : 714 Kbps
Source                         : NTSC DVD9

Video
ID                             : 1
Format                         : AVC
Format/Info                    : Advanced Video Codec
Duration                       : 2h 16mn
Bit rate                       : 670 Kbps
Maximum bit rate               : 4 083 Kbps
Width                          : 608 pixels
Height                         : 256 pixels
Display aspect ratio           : 2.40:1
Frame rate mode                : Constant
Frame rate                     : 29.970 fps
Stream size                    : 654 MiB (94%)
Title                          : lãÎwU@ïHH
Writing library                : x264 core 129 r2230

Audio
ID                             : 2
Format                         : AAC
Format/Info                    : Advanced Audio Codec
Codec ID                       : 40
Duration                       : 2h 16mn
Bit rate mode                  : Variable
Bit rate                       : 40.0 Kbps
Maximum bit rate               : 46.1 Kbps
Channel(s)                     : 2 channels
Channel positions              : Front: L R
Sampling rate                  : 44.1 KHz
Stream size                    : 39.0 MiB (6%)

Subtitle                       : N/a


Screens:
 
http://www.shotpix.com/images/45875100449031077553.png 
http://www.shotpix.com/images/62052037054356159975.png 
http://www.shotpix.com/images/10095588168279302838.png 
http://www.shotpix.com/images/42082965110045022576.png 
http://www.shotpix.com/images/11188257290834586280.png 
http://www.shotpix.com/images/90235426419336120640.png


----------------------------------------------------------------------------------------------------


Recommend to you to use latest version of VLC player. Install K-Lite Codec Pack or shark007 codecs
in case of any kind of problem in playback (For non-VLC Media Player users). Alternatively, install
Core AVC codecs, the fastest decoder that there is coupled with Community Center Codec Pack and play
on Windows Media Player Classic. Check sample to be sure.
Enjoy!

Greets to: Vitamin_X, a2zRG, srkfan, MgB, Stumpie1971, Sheychi and staff members at ExtraTorrent, TPB,KAT, 1337x, PublicHD, Ahashare, BTScene, SilverTorrent, LimeTorrents, TorrentMafia, P2PDL, and all
others.

Encoder Notes: Looking For Early Access To Anything You Can Provide DVDScr, R5, DVDR, BluRay, Direct
Audio, Early Music Releases, Seedboxes, Dedicated Servers anything u can provide, Advance / Promo CDs/
DVDs. If You Got anything to offer contact me at "prg@hush.com".

Facebook Fan Page: www . facebook . com / p2pdl